name rise44.9368peak50.754fall52.0217.mot
datacolumns 19
datarows 23
range 14.68162000000000 14.71827900000000
endheader
time	ground_force1_vx	ground_force1_vy	ground_force1_vz	ground_force1_px	ground_force1_py	ground_force1_pz	ground_force2_vx	ground_force2_vy	ground_force2_vz	ground_force2_px	ground_force2_py	ground_force2_pz	ground_torque1_x	ground_torque1_y	ground_torque1_z	ground_torque2_x	ground_torque2_y	ground_torque2_z	
14.68162000000000	-7.52727300000000	42.16049200000000	-9.02626000000000	0.35996800000000	0.00000000000000	0.12157800000000	-49.27770100000000	793.02183300000002	-70.27270600000000	0.16890000000000	0.00000000000000	-0.10219600000000	0.00000000000000	-6.45538800000000	0.00000000000000	0.00000000000000	-30.45991100000000	0.00000000000000	
14.68328500000000	-8.26552100000000	49.53448200000000	-10.11412100000000	0.36213900000000	0.00000000000000	0.12308600000000	-49.80583900000000	790.93619600000000	-69.98914400000000	0.16773200000000	0.00000000000000	-0.10215500000000	0.00000000000000	-7.27951200000000	0.00000000000000	0.00000000000000	-30.31674400000000	0.00000000000000	
14.68495100000000	-8.86170600000000	57.03433500000000	-11.08881000000000	0.36422300000000	0.00000000000000	0.12443200000000	-50.33483700000000	788.69878400000005	-69.67562300000000	0.16656500000000	0.00000000000000	-0.10211100000000	0.00000000000000	-8.03733200000000	0.00000000000000	0.00000000000000	-30.16780800000000	0.00000000000000	
14.68661400000000	-9.29433700000000	64.56667800000000	-11.92600500000000	0.36623500000000	0.00000000000000	0.12564200000000	-50.86448400000000	786.30737599999998	-69.33198500000000	0.16540100000000	0.00000000000000	-0.10206400000000	0.00000000000000	-8.71209400000000	0.00000000000000	0.00000000000000	-30.01322700000000	0.00000000000000	
14.68828000000000	-9.55010500000000	72.06037100000000	-12.60967600000000	0.36819100000000	0.00000000000000	0.12673700000000	-51.39453700000000	783.75981300000001	-68.95811700000000	0.16424000000000	0.00000000000000	-0.10201400000000	0.00000000000000	-9.29261300000000	0.00000000000000	0.00000000000000	-29.85312700000000	0.00000000000000	
14.68994500000000	-9.62381000000000	79.46881399999999	-13.13216700000000	0.37010000000000	0.00000000000000	0.12773400000000	-51.92471800000000	781.05400599999996	-68.55395000000000	0.16308200000000	0.00000000000000	-0.10196000000000	0.00000000000000	-9.77337600000000	0.00000000000000	0.00000000000000	-29.68763700000000	0.00000000000000	
14.69161100000000	-9.51763500000000	86.76983799999999	-13.49357500000000	0.37197000000000	0.00000000000000	0.12864700000000	-52.45471600000000	778.18793400000004	-68.11946000000000	0.16193000000000	0.00000000000000	-0.10190300000000	0.00000000000000	-10.15416700000000	0.00000000000000	0.00000000000000	-29.51689000000000	0.00000000000000	
14.69327800000000	-9.23995600000000	93.96360500000000	-13.70060800000000	0.37380700000000	0.00000000000000	0.12948500000000	-52.98418400000000	775.15965900000003	-67.65466700000000	0.16078400000000	0.00000000000000	-0.10184300000000	0.00000000000000	-10.43931600000000	0.00000000000000	0.00000000000000	-29.34101800000000	0.00000000000000	
14.69494900000000	-8.80383900000000	101.06902599999999	-13.76509300000000	0.37561700000000	0.00000000000000	0.13026000000000	-53.51273900000000	771.96732499999996	-67.15963700000000	0.15964400000000	0.00000000000000	-0.10177900000000	0.00000000000000	-10.63670800000000	0.00000000000000	0.00000000000000	-29.16015300000000	0.00000000000000	
14.69662400000000	-8.22543200000000	108.11925200000000	-13.70233000000000	0.37740200000000	0.00000000000000	0.13097800000000	-54.03995900000000	768.60916499999996	-66.63448099999999	0.15851300000000	0.00000000000000	-0.10171200000000	0.00000000000000	-10.75666300000000	0.00000000000000	0.00000000000000	-28.97442800000000	0.00000000000000	
14.69828400000000	-7.52238000000000	115.15678800000001	-13.52944200000000	0.37916600000000	0.00000000000000	0.13164700000000	-54.56538200000000	765.08351200000004	-66.07935800000000	0.15739000000000	0.00000000000000	-0.10164100000000	0.00000000000000	-10.81081100000000	0.00000000000000	0.00000000000000	-28.78397500000000	0.00000000000000	
14.69994900000000	-6.71239900000000	122.22866500000001	-13.26387100000000	0.38091000000000	0.00000000000000	0.13227000000000	-55.08850600000000	761.38879799999995	-65.49447200000000	0.15627700000000	0.00000000000000	-0.10156600000000	0.00000000000000	-10.81104600000000	0.00000000000000	0.00000000000000	-28.58892300000000	0.00000000000000	
14.70161200000000	-5.81209300000000	129.38207499999999	-12.92210500000000	0.38263600000000	0.00000000000000	0.13285400000000	-55.60878900000000	757.52356399999996	-64.88007500000001	0.15517500000000	0.00000000000000	-0.10148700000000	0.00000000000000	-10.76863600000000	0.00000000000000	0.00000000000000	-28.38940100000000	0.00000000000000	
14.70328500000000	-4.83606800000000	136.66070800000000	-12.51869100000000	0.38434600000000	0.00000000000000	0.13340200000000	-56.12564500000000	753.48646599999995	-64.23646500000000	0.15408500000000	0.00000000000000	-0.10140500000000	0.00000000000000	-10.69352700000000	0.00000000000000	0.00000000000000	-28.18553300000000	0.00000000000000	
14.70494800000000	-3.79635200000000	144.10196800000000	-12.06558300000000	0.38603900000000	0.00000000000000	0.13391800000000	-56.63844600000000	749.27628100000004	-63.56398900000000	0.15300700000000	0.00000000000000	-0.10131900000000	0.00000000000000	-10.59386500000000	0.00000000000000	0.00000000000000	-27.97743900000000	0.00000000000000	
14.70661300000000	-2.70212000000000	151.73511099999999	-11.57178700000000	0.38771500000000	0.00000000000000	0.13440500000000	-57.14652000000000	744.89191200000005	-62.86303800000000	0.15194300000000	0.00000000000000	-0.10122800000000	0.00000000000000	-10.47573500000000	0.00000000000000	0.00000000000000	-27.76523600000000	0.00000000000000	
14.70828400000000	-1.55968600000000	159.58029099999999	-11.04330200000000	0.38937600000000	0.00000000000000	0.13486500000000	-57.64915200000000	740.33239700000001	-62.13405500000000	0.15089400000000	0.00000000000000	-0.10113400000000	0.00000000000000	-10.34309500000000	0.00000000000000	0.00000000000000	-27.54903500000000	0.00000000000000	
14.70995000000000	-0.37271400000000	167.64841100000001	-10.48329300000000	0.39102100000000	0.00000000000000	0.13530100000000	-58.14558000000000	735.59691499999997	-61.37752600000000	0.14986100000000	0.00000000000000	-0.10103600000000	0.00000000000000	-10.19787800000000	0.00000000000000	0.00000000000000	-27.32894100000000	0.00000000000000	
14.71161600000000	0.85740200000000	175.94166000000001	-9.89244400000000	0.39265000000000	0.00000000000000	0.13571400000000	-58.63500200000000	730.68479100000002	-60.59398700000000	0.14884400000000	0.00000000000000	-0.10093300000000	0.00000000000000	-10.04023300000000	0.00000000000000	0.00000000000000	-27.10505400000000	0.00000000000000	
14.71328500000000	2.13106200000000	184.45454000000001	-9.26944100000000	0.39426200000000	0.00000000000000	0.13610700000000	-59.11656700000000	725.59550800000000	-59.78401700000000	0.14784500000000	0.00000000000000	-0.10082600000000	0.00000000000000	-9.86884500000000	0.00000000000000	0.00000000000000	-26.87746600000000	0.00000000000000	
14.71494900000000	3.44992000000000	193.17524900000001	-8.61150700000000	0.39585700000000	0.00000000000000	0.13648000000000	-59.58938500000000	720.32871000000000	-58.94824500000000	0.14686400000000	0.00000000000000	-0.10071500000000	0.00000000000000	-9.68130800000000	0.00000000000000	0.00000000000000	-26.64626200000000	0.00000000000000	
14.71661600000000	4.81635400000000	202.08722599999999	-7.91496200000000	0.39743400000000	0.00000000000000	0.13683600000000	-60.05252100000000	714.88421100000005	-58.08734300000000	0.14590300000000	0.00000000000000	-0.10060000000000	0.00000000000000	-9.47451900000000	0.00000000000000	0.00000000000000	-26.41151800000000	0.00000000000000	
14.71827900000000	6.23297000000000	211.17072500000000	-7.17574200000000	0.39899200000000	0.00000000000000	0.13717500000000	-60.50499800000000	709.26200800000004	-57.20202900000000	0.14496300000000	0.00000000000000	-0.10048000000000	0.00000000000000	-9.24504600000000	0.00000000000000	0.00000000000000	-26.17330500000000	0.00000000000000	
